<svg width="56" height="56" viewBox="0 0 56 56" fill="none" xmlns="http://www.w3.org/2000/svg">
<rect width="56" height="56" rx="28" fill="#F3F2F0" fill-opacity="0.2"/>
<g clip-path="url(#clip0_1_89)">
<path fill-rule="evenodd" clip-rule="evenodd" d="M36.6176 19.13C36.9004 19.0149 37.2099 18.9752 37.5139 19.015C37.818 19.0549 38.1054 19.1728 38.3463 19.3565C38.5873 19.5402 38.7729 19.783 38.8838 20.0596C38.9948 20.3362 39.027 20.6365 38.9772 20.9293L36.3819 36.1526C36.1301 37.621 34.4639 38.4631 33.0713 37.7316C31.9063 37.1197 30.1761 36.1769 28.6197 35.1931C27.8416 34.7007 25.4579 33.1238 25.7509 32.0018C26.0026 31.0424 30.0078 27.4371 32.2965 25.2937C33.1948 24.4515 32.7852 23.9658 31.7244 24.7404C29.0901 26.6636 24.8606 29.5883 23.4622 30.4116C22.2286 31.1375 21.5854 31.2615 20.8164 31.1375C19.4135 30.9118 18.1123 30.5621 17.0504 30.1361C15.6154 29.5606 15.6852 27.6529 17.0492 27.0974L36.6176 19.13Z" fill="#D4CBB7"/>
</g>
<defs>
<clipPath id="clip0_1_89">
<rect width="25" height="25" fill="white" transform="translate(15 15)"/>
</clipPath>
</defs>
</svg>
