<svg width="56" height="56" viewBox="0 0 56 56" fill="none" xmlns="http://www.w3.org/2000/svg">
<rect width="56" height="56" rx="28" fill="#F3F2F0" fill-opacity="0.2"/>
<path fill-rule="evenodd" clip-rule="evenodd" d="M33.0824 17.5668C29.7351 16.8111 26.2639 16.8111 22.9166 17.5668L22.5559 17.6474C21.6143 17.86 20.7496 18.3321 20.0576 19.0113C19.3657 19.6904 18.8737 20.55 18.6364 21.4945C17.7879 24.8715 17.7879 28.4091 18.6364 31.7861C18.8627 32.6869 19.3209 33.5113 19.9644 34.1756C20.6079 34.8399 21.4138 35.3205 22.3005 35.5688L22.7953 38.5519C22.8111 38.6466 22.8517 38.7354 22.913 38.8088C22.9743 38.8823 23.0539 38.9378 23.1436 38.9697C23.2334 39.0015 23.3299 39.0084 23.4232 38.9898C23.5165 38.9711 23.6031 38.9275 23.6741 38.8636L26.5797 36.2383C28.7608 36.3727 30.9499 36.1965 33.0824 35.7149L33.4442 35.6343C34.3857 35.4217 35.2505 34.9496 35.9424 34.2705C36.6343 33.5913 37.1263 32.7317 37.3637 31.7872C38.2121 28.4102 38.2121 24.8726 37.3637 21.4956C37.1262 20.5509 36.6341 19.6913 35.942 19.0121C35.2499 18.333 34.3849 17.8609 33.4431 17.6485L33.0824 17.5668ZM23.8145 21.4075C23.6168 21.3784 23.4152 21.4186 23.2432 21.5214H23.2283C22.8293 21.7578 22.4697 22.0555 22.1633 22.4058C21.908 22.7035 21.7696 23.0044 21.7335 23.2945C21.7122 23.4665 21.7271 23.6405 21.7771 23.805L21.7962 23.8157C22.0835 24.6679 22.458 25.4878 22.9155 26.2594C23.5054 27.3431 24.2313 28.3454 25.0753 29.2414L25.1008 29.278L25.1412 29.3081L25.1657 29.3371L25.1955 29.3629C26.0857 30.2179 27.0804 30.9546 28.1554 31.5551C29.3842 32.231 30.13 32.5502 30.5779 32.6834V32.6899C30.7088 32.7307 30.828 32.749 30.9482 32.749C31.3297 32.7205 31.6907 32.5639 31.9738 32.3041C32.3196 31.9946 32.6122 31.6303 32.8399 31.2252V31.2177C33.0537 30.8093 32.9814 30.4246 32.6728 30.1635C32.0531 29.6165 31.3829 29.1307 30.6716 28.7127C30.1949 28.4516 29.7108 28.6096 29.5151 28.8739L29.0969 29.4069C28.882 29.6713 28.4926 29.6348 28.4926 29.6348L28.482 29.6412C25.5764 28.8922 24.8008 25.9209 24.8008 25.9209C24.8008 25.9209 24.7646 25.5168 25.0338 25.3105L25.5572 24.885C25.8083 24.6786 25.9828 24.1907 25.7136 23.7093C25.3025 22.9901 24.8225 22.3135 24.2805 21.689C24.1623 21.5421 23.9965 21.442 23.8124 21.4064L23.8145 21.4075ZM28.7235 20.1158C28.5824 20.1158 28.4471 20.1724 28.3474 20.2732C28.2476 20.3739 28.1915 20.5106 28.1915 20.6531C28.1915 20.7956 28.2476 20.9323 28.3474 21.033C28.4471 21.1338 28.5824 21.1904 28.7235 21.1904C30.0694 21.1904 31.1865 21.6342 32.0706 22.4853C32.5249 22.9506 32.8792 23.5019 33.1112 24.1059C33.3442 24.7109 33.4506 25.3567 33.4229 26.0036C33.42 26.0742 33.4308 26.1446 33.4548 26.211C33.4789 26.2773 33.5156 26.3382 33.5629 26.3902C33.6585 26.4952 33.7914 26.5575 33.9325 26.5635C34.0736 26.5695 34.2113 26.5186 34.3152 26.4221C34.4192 26.3256 34.4809 26.1913 34.4868 26.0488C34.5198 25.253 34.389 24.459 34.1027 23.7168C33.8152 22.9712 33.3792 22.2931 32.8218 21.7245L32.8111 21.7138C31.7142 20.6553 30.3258 20.1158 28.7235 20.1158ZM28.6873 21.8825C28.5462 21.8825 28.4109 21.9391 28.3112 22.0398C28.2114 22.1406 28.1554 22.2773 28.1554 22.4198C28.1554 22.5623 28.2114 22.699 28.3112 22.7997C28.4109 22.9005 28.5462 22.9571 28.6873 22.9571H28.7054C29.6757 23.0269 30.3822 23.3536 30.8769 23.8899C31.3844 24.4422 31.6472 25.1289 31.627 25.9778C31.6237 26.1203 31.6767 26.2583 31.7741 26.3614C31.8716 26.4645 32.0056 26.5242 32.1467 26.5275C32.2878 26.5308 32.4244 26.4773 32.5264 26.3789C32.6285 26.2804 32.6877 26.1451 32.6909 26.0026C32.7164 24.8882 32.3611 23.9264 31.6568 23.1591V23.157C30.9365 22.3768 29.9481 21.9641 28.7586 21.8835L28.7405 21.8814L28.6873 21.8825ZM28.6671 23.6825C28.5959 23.6761 28.5242 23.6843 28.4562 23.7066C28.3882 23.7289 28.3254 23.7647 28.2714 23.8121C28.2175 23.8594 28.1736 23.9173 28.1422 23.9822C28.1109 24.047 28.0928 24.1176 28.0891 24.1897C28.0854 24.2618 28.0961 24.3339 28.1206 24.4017C28.1451 24.4696 28.1828 24.5317 28.2316 24.5845C28.2804 24.6372 28.3392 24.6795 28.4045 24.7088C28.4698 24.7381 28.5403 24.7538 28.6118 24.7549C29.0565 24.7786 29.3406 24.914 29.5193 25.0956C29.6991 25.2783 29.8332 25.5716 29.8577 26.0305C29.859 26.1026 29.8747 26.1737 29.9038 26.2395C29.9329 26.3054 29.9748 26.3647 30.0271 26.4138C30.0794 26.4629 30.1409 26.5009 30.208 26.5256C30.2751 26.5502 30.3464 26.5609 30.4177 26.5571C30.489 26.5532 30.5589 26.5349 30.623 26.5033C30.6872 26.4716 30.7444 26.4273 30.7912 26.3728C30.838 26.3184 30.8735 26.2549 30.8955 26.1864C30.9176 26.1178 30.9257 26.0454 30.9195 25.9735C30.8854 25.3288 30.6854 24.7592 30.2758 24.3401C29.864 23.921 29.3034 23.7168 28.6671 23.6825Z" fill="#D4CBB7"/>
</svg>
