<svg width="56" height="56" viewBox="0 0 56 56" fill="none" xmlns="http://www.w3.org/2000/svg">
<rect width="56" height="56" rx="28" fill="#F3F2F0" fill-opacity="0.2"/>
<path d="M27.5 17C33.2992 17 38 21.7008 38 27.5C38 33.2991 33.2992 38 27.5 38C25.6444 38.003 23.8215 37.5119 22.2185 36.5772L17.0042 38L18.4238 32.7836C17.4884 31.1801 16.9969 29.3564 17 27.5C17 21.7008 21.7009 17 27.5 17ZM23.9216 22.565L23.7116 22.5734C23.5757 22.5817 23.4428 22.6174 23.321 22.6784C23.2071 22.7429 23.1031 22.8235 23.0123 22.9178C22.8863 23.0364 22.8149 23.1393 22.7383 23.2391C22.3499 23.744 22.1408 24.364 22.144 25.001C22.1461 25.5155 22.2805 26.0163 22.4905 26.4846C22.9199 27.4317 23.6266 28.4345 24.559 29.3637C24.7837 29.5874 25.0042 29.8121 25.2415 30.021C26.4 31.0411 27.7806 31.7767 29.2735 32.1693L29.8699 32.2607C30.0641 32.2712 30.2584 32.2565 30.4537 32.247C30.7595 32.2313 31.0581 32.1485 31.3283 32.0045C31.4658 31.9337 31.6 31.8566 31.7305 31.7735C31.7305 31.7735 31.7756 31.7441 31.8617 31.679C32.0035 31.574 32.0906 31.4994 32.2082 31.3766C32.2954 31.2863 32.371 31.1802 32.4287 31.0595C32.5106 30.8883 32.5925 30.5618 32.6261 30.2898C32.6513 30.0819 32.644 29.9685 32.6408 29.8982C32.6366 29.7858 32.5432 29.6693 32.4413 29.6199L31.8302 29.3459C31.8302 29.3459 30.9167 28.9479 30.3581 28.6938C30.2997 28.6683 30.237 28.6537 30.1733 28.6508C30.1015 28.6434 30.0289 28.6515 29.9604 28.6745C29.892 28.6975 29.8292 28.7349 29.7764 28.7841C29.7712 28.782 29.7008 28.8419 28.9417 29.7617C28.8981 29.8202 28.8381 29.8645 28.7692 29.8888C28.7004 29.9131 28.6259 29.9164 28.5553 29.8982C28.4869 29.8799 28.4198 29.8567 28.3547 29.8289C28.2245 29.7743 28.1794 29.7533 28.0901 29.7155C27.4875 29.4525 26.9295 29.0972 26.4364 28.6623C26.3041 28.5468 26.1812 28.4208 26.0552 28.299C25.6421 27.9034 25.2821 27.4559 24.9842 26.9676L24.9223 26.8679C24.8778 26.8009 24.8418 26.7286 24.8152 26.6526C24.7753 26.4983 24.8792 26.3744 24.8792 26.3744C24.8792 26.3744 25.1344 26.0951 25.253 25.9439C25.3685 25.7969 25.4662 25.6541 25.5292 25.5522C25.6531 25.3527 25.6919 25.148 25.6268 24.9894C25.3328 24.2712 25.0283 23.5562 24.7154 22.8464C24.6535 22.7057 24.4697 22.6049 24.3028 22.5849C24.2461 22.5786 24.1894 22.5723 24.1327 22.5681C23.9917 22.5611 23.8504 22.5625 23.7095 22.5723L23.9216 22.565Z" fill="#D4CBB7"/>
</svg>
