<svg width="44" height="44" viewBox="0 0 44 44" fill="none" xmlns="http://www.w3.org/2000/svg">
<rect width="44" height="44" rx="22" fill="#F3F2F0"/>
<path d="M29.3 15H15.7C14.765 15 14 15.7312 14 16.625V26.375C14 27.2688 14.765 28 15.7 28H29.3C30.235 28 31 27.2688 31 26.375V16.625C31 15.7312 30.235 15 29.3 15ZM28.96 18.4531L23.401 21.7762C22.8485 22.1094 22.1515 22.1094 21.599 21.7762L16.04 18.4531C15.9548 18.4074 15.8801 18.3456 15.8206 18.2715C15.7611 18.1974 15.7179 18.1125 15.6937 18.022C15.6695 17.9315 15.6647 17.8372 15.6797 17.7449C15.6947 17.6526 15.7292 17.5641 15.781 17.4849C15.8328 17.4056 15.9009 17.3373 15.9811 17.2839C16.0614 17.2306 16.1521 17.1934 16.2478 17.1745C16.3436 17.1556 16.4423 17.1555 16.5381 17.1742C16.6338 17.1929 16.7246 17.2299 16.805 17.2831L22.5 20.6875L28.195 17.2831C28.2754 17.2299 28.3662 17.1929 28.4619 17.1742C28.5577 17.1555 28.6564 17.1556 28.7522 17.1745C28.8479 17.1934 28.9386 17.2306 29.0189 17.2839C29.0991 17.3373 29.1672 17.4056 29.219 17.4849C29.2708 17.5641 29.3053 17.6526 29.3203 17.7449C29.3353 17.8372 29.3305 17.9315 29.3063 18.022C29.2821 18.1125 29.2389 18.1974 29.1794 18.2715C29.1199 18.3456 29.0452 18.4074 28.96 18.4531Z" fill="#897B75"/>
</svg>
