<svg width="44" height="44" viewBox="0 0 44 44" fill="none" xmlns="http://www.w3.org/2000/svg">
<rect width="44" height="44" rx="22" fill="#F3F2F0"/>
<g clip-path="url(#clip0_9_78)">
<path d="M22.5 14C27.1946 14 31 17.8055 31 22.5C31 27.1946 27.1946 31 22.5 31C17.8055 31 14 27.1946 14 22.5C14 17.8055 17.8055 14 22.5 14ZM22.5 17.4C22.2746 17.4 22.0584 17.4896 21.899 17.649C21.7396 17.8084 21.65 18.0246 21.65 18.25V22.5C21.65 22.7254 21.7396 22.9416 21.8991 23.101L24.4491 25.651C24.6094 25.8058 24.8241 25.8915 25.0469 25.8895C25.2698 25.8876 25.483 25.7982 25.6406 25.6406C25.7982 25.483 25.8876 25.2698 25.8895 25.0469C25.8915 24.8241 25.8058 24.6094 25.651 24.4491L23.35 22.1481V18.25C23.35 18.0246 23.2604 17.8084 23.101 17.649C22.9416 17.4896 22.7254 17.4 22.5 17.4Z" fill="#897B75"/>
</g>
<defs>
<clipPath id="clip0_9_78">
<rect width="20" height="20" fill="white" transform="translate(12 12)"/>
</clipPath>
</defs>
</svg>
