<svg width="116" height="20" viewBox="0 0 116 20" fill="none" xmlns="http://www.w3.org/2000/svg">
<path d="M10 0L12.2451 6.90983H19.5106L13.6327 11.1803L15.8779 18.0902L10 13.8197L4.12215 18.0902L6.36729 11.1803L0.489435 6.90983H7.75486L10 0Z" fill="#FFB72A"/>
<path d="M34 0L36.2451 6.90983H43.5106L37.6327 11.1803L39.8779 18.0902L34 13.8197L28.1221 18.0902L30.3673 11.1803L24.4894 6.90983H31.7549L34 0Z" fill="#FFB72A"/>
<path d="M58 0L60.2451 6.90983H67.5106L61.6327 11.1803L63.8779 18.0902L58 13.8197L52.1221 18.0902L54.3673 11.1803L48.4894 6.90983H55.7549L58 0Z" fill="#FFB72A"/>
<path d="M82 0L84.2451 6.90983H91.5106L85.6327 11.1803L87.8779 18.0902L82 13.8197L76.1221 18.0902L78.3673 11.1803L72.4894 6.90983H79.7549L82 0Z" fill="#FFB72A"/>
<path d="M106 1.61804L107.77 7.06434L107.882 7.40983H108.245H113.972L109.339 10.7758L109.045 10.9894L109.157 11.3348L110.927 16.7812L106.294 13.4152L106 13.2016L105.706 13.4152L101.073 16.7812L102.843 11.3348L102.955 10.9894L102.661 10.7758L98.0283 7.40983H103.755H104.118L104.23 7.06434L106 1.61804Z" fill="white" stroke="#FFB72A"/>
<path fill-rule="evenodd" clip-rule="evenodd" d="M106 1.53885V14.8739L100.328 18.9947L102.686 11.7394L97 7.6085V7.25533H104.143L106 1.53885Z" fill="#FFB72A"/>
</svg>
