<svg width="44" height="44" viewBox="0 0 44 44" fill="none" xmlns="http://www.w3.org/2000/svg">
<rect width="44" height="44" rx="22" fill="#F3F2F0"/>
<path d="M28.4323 24.9109L26.17 24.6526C25.904 24.6214 25.6343 24.6508 25.3813 24.7388C25.1283 24.8267 24.8986 24.9708 24.7093 25.1603L23.0704 26.7992C20.5419 25.5132 18.4868 23.458 17.2008 20.9295L18.8486 19.2818C19.2316 18.8988 19.4186 18.3644 19.3563 17.821L19.098 15.5765C19.0475 15.142 18.839 14.7413 18.5121 14.4506C18.1853 14.1598 17.7629 13.9995 17.3255 14H15.7846C14.7782 14 13.9409 14.8372 14.0033 15.8437C14.4753 23.4502 20.5587 29.5247 28.1562 29.9967C29.1627 30.0591 29.9999 29.2218 29.9999 28.2154V26.6745C30.0088 25.7749 29.3319 25.0178 28.4323 24.9109Z" fill="#897B75"/>
</svg>
