<svg width="44" height="44" viewBox="0 0 44 44" fill="none" xmlns="http://www.w3.org/2000/svg">
<rect width="44" height="44" rx="22" fill="#F3F2F0"/>
<path d="M22.5 14C27.1946 14 31 17.8054 31 22.5C31 27.1945 27.1946 31 22.5 31C20.9979 31.0024 19.5222 30.6049 18.2245 29.8482L14.0034 31L15.1526 26.7772C14.3953 25.4791 13.9975 24.0028 14 22.5C14 17.8054 17.8055 14 22.5 14ZM19.6032 18.505L19.4332 18.5118C19.3232 18.5185 19.2156 18.5474 19.117 18.5968C19.0248 18.649 18.9406 18.7143 18.8671 18.7906C18.7651 18.8866 18.7073 18.9699 18.6453 19.0507C18.3309 19.4595 18.1616 19.9613 18.1642 20.477C18.1659 20.8935 18.2747 21.2989 18.4447 21.678C18.7923 22.4447 19.3644 23.2565 20.1192 24.0087C20.3011 24.1898 20.4796 24.3717 20.6717 24.5408C21.6095 25.3666 22.7272 25.9621 23.9357 26.2799L24.4185 26.3539C24.5757 26.3624 24.733 26.3505 24.8911 26.3428C25.1386 26.3301 25.3803 26.263 25.5991 26.1465C25.7104 26.0892 25.819 26.0268 25.9247 25.9595C25.9247 25.9595 25.9612 25.9357 26.0309 25.883C26.1457 25.798 26.2162 25.7376 26.3114 25.6382C26.382 25.5651 26.4432 25.4792 26.4899 25.3815C26.5562 25.2429 26.6225 24.9786 26.6497 24.7584C26.6701 24.5901 26.6642 24.4983 26.6616 24.4414C26.6582 24.3504 26.5826 24.2561 26.5001 24.2161L26.0054 23.9943C26.0054 23.9943 25.2659 23.6721 24.8137 23.4664C24.7664 23.4458 24.7157 23.434 24.6641 23.4316C24.6059 23.4256 24.5472 23.4322 24.4918 23.4508C24.4363 23.4694 24.3856 23.4997 24.3428 23.5395C24.3386 23.5378 24.2816 23.5863 23.6671 24.3309C23.6318 24.3783 23.5832 24.4141 23.5275 24.4338C23.4718 24.4535 23.4115 24.4561 23.3543 24.4414C23.2989 24.4265 23.2446 24.4078 23.1919 24.3853C23.0865 24.3411 23.05 24.3241 22.9777 24.2935C22.4899 24.0806 22.0382 23.793 21.639 23.4409C21.5319 23.3474 21.4324 23.2454 21.3304 23.1468C20.996 22.8266 20.7046 22.4643 20.4634 22.069L20.4133 21.9883C20.3772 21.934 20.3481 21.8755 20.3266 21.814C20.2943 21.6891 20.3784 21.5888 20.3784 21.5888C20.3784 21.5888 20.585 21.3627 20.681 21.2403C20.7745 21.1213 20.8536 21.0057 20.9046 20.9232C21.0049 20.7617 21.0363 20.596 20.9836 20.4676C20.7456 19.8862 20.4991 19.3074 20.2458 18.7328C20.1957 18.6189 20.0469 18.5373 19.9118 18.5211C19.8659 18.516 19.82 18.5109 19.7741 18.5075C19.6599 18.5019 19.5455 18.503 19.4315 18.5109L19.6032 18.505Z" fill="#897B75"/>
</svg>
