<svg width="194" height="60" viewBox="0 0 194 60" fill="none" xmlns="http://www.w3.org/2000/svg">
<path fill-rule="evenodd" clip-rule="evenodd" d="M14.4802 2.8432V5.6864L14.0526 5.81968C13.8175 5.89296 13.2017 6.01501 12.6844 6.09081C12.1671 6.16672 11.7438 6.27 11.7438 6.32026C11.7438 6.37064 11.6673 6.41186 11.5738 6.41186C11.2721 6.41186 9.66169 6.99683 8.6653 7.46833C7.38842 8.07253 6.52542 8.5951 5.41581 9.43597C4.53127 10.1061 2.73641 11.8275 2.73641 12.0056C2.73641 12.054 2.64622 12.1934 2.53597 12.3155C2.32903 12.5447 1.98127 13.0528 1.75712 13.4535C1.30048 14.2699 0.92445 15.0492 0.857978 15.317C0.815336 15.4885 0.714773 15.7835 0.634505 15.9724C0.231341 16.9204 -0.0171027 19.009 0.12063 20.2919C0.2969 21.9328 0.877247 23.8635 1.48975 24.846C1.54858 24.9404 1.64903 25.1398 1.71288 25.2888C2.30816 26.68 5.82331 29.9686 7.54781 30.7477C7.75476 30.8412 8.00115 30.9665 8.09521 31.0262C9.07245 31.6458 12.1666 32.6393 13.9956 32.9209L14.4802 32.9954V35.8478V38.7002H17.3857H20.291L20.3216 35.8706L20.352 33.041L20.8081 32.9473C22.7618 32.5459 24.6943 32.0126 24.907 31.8159C24.9667 31.7608 25.0956 31.7158 25.1937 31.7158C25.2918 31.7158 25.91 31.4335 26.5676 31.0884C27.2251 30.7433 27.8914 30.3965 28.0482 30.3179C28.205 30.2392 28.3743 30.1094 28.4244 30.0294C28.4746 29.9493 28.5678 29.8838 28.6315 29.8838C28.7382 29.8838 29.2906 29.4991 29.7826 29.0824C30.051 28.855 31.9492 26.9595 32.0989 26.7694C32.6804 26.0309 32.948 25.5842 33.5614 24.3282C34.6465 22.1066 34.9867 19.9536 34.6106 17.6899C34.4562 16.7609 34.1841 15.7024 33.9926 15.2854C33.1261 13.3987 32.5765 12.5447 31.3915 11.2435C30.5737 10.3457 29.0165 9.02653 28.3902 8.70112C28.2335 8.61972 28.0795 8.52205 28.0482 8.48426C27.9536 8.37022 26.3107 7.51356 25.5398 7.17636C24.7265 6.8205 22.7233 6.19534 22.0053 6.07341C21.5977 6.00413 21.0461 5.88609 20.7796 5.81121L20.295 5.67484L20.2942 3.61033C20.2938 2.47475 20.2607 1.19787 20.2207 0.772858L20.1481 0H17.3141H14.4802V2.8432ZM45.444 5.00927C45.2941 5.65171 44.7959 7.27723 44.6901 7.46936C44.6299 7.5787 44.5807 7.77003 44.5807 7.89449C44.5807 8.01895 44.4867 8.39312 44.3718 8.72608C44.1375 9.40551 43.7561 10.6727 43.5522 11.4497C43.4778 11.7331 43.3779 12.0165 43.3302 12.0795C43.2826 12.1425 43.2114 12.4061 43.1721 12.6655C43.1328 12.9247 43.0234 13.2854 42.9292 13.467C42.8349 13.6484 42.7575 13.899 42.7571 14.0238C42.7567 14.1485 42.6591 14.5091 42.5402 14.8253C42.4214 15.1413 42.2713 15.606 42.2065 15.8579C42.1418 16.1098 41.9785 16.6766 41.8435 17.1174C41.7086 17.5582 41.5227 18.2022 41.4306 18.5486C41.3384 18.8949 41.2172 19.2814 41.1612 19.4073C41.1052 19.5333 41.0248 19.8167 40.9826 20.0371C40.9403 20.2575 40.8663 20.4893 40.8181 20.5523C40.7699 20.6153 40.6941 20.8471 40.6496 21.0675C40.6051 21.2879 40.3992 22.0093 40.192 22.6705C39.4246 25.1194 38.8574 27.0439 38.454 28.5671C38.3539 28.945 38.2419 29.2799 38.2052 29.3114C38.1398 29.3673 37.9074 30.1722 37.5622 31.5367C37.4677 31.9105 37.3483 32.2711 37.297 32.3382C37.2457 32.4052 37.1374 32.7836 37.0563 33.179C36.9753 33.5744 36.865 33.9253 36.8112 33.9586C36.7575 33.992 36.7112 34.1322 36.7085 34.2701C36.7057 34.4081 36.6249 34.7271 36.5288 34.979C36.4328 35.2309 36.286 35.7204 36.2027 36.0667C36.1193 36.4131 35.988 36.8768 35.9108 37.0972C35.8336 37.3176 35.6765 37.7685 35.5617 38.099L35.353 38.7002H38.2566C40.5031 38.7002 41.1603 38.6678 41.1608 38.557C41.1613 38.4784 41.233 38.2764 41.3202 38.1084C41.4076 37.9403 41.5152 37.5797 41.5594 37.3069C41.6037 37.0341 41.7097 36.6564 41.795 36.4675C41.8804 36.2785 42.0021 35.9179 42.0654 35.666C42.3141 34.6764 42.625 33.5912 42.7378 33.3188C42.8029 33.1613 42.966 32.6461 43.1 32.1738C43.4521 30.9332 43.9023 29.4139 44.0158 29.0824C44.0698 28.9249 44.1697 28.5643 44.238 28.2809C44.3063 27.9975 44.4082 27.6626 44.4644 27.5366C44.5206 27.4107 44.6504 26.9985 44.7529 26.6207C45.1745 25.0667 45.5123 24.0445 45.6045 24.0445C45.7139 24.0445 45.8696 24.4982 46.4493 26.5062C46.6675 27.2619 47.0563 28.5757 47.3134 29.4259C47.5706 30.276 47.8754 31.3065 47.9909 31.7158C48.1064 32.1251 48.3131 32.8207 48.4504 33.2615C48.5876 33.7023 48.7727 34.3206 48.8618 34.6355C49.3678 36.4231 49.4573 36.722 49.5646 36.9827C49.6293 37.1401 49.7188 37.4493 49.7635 37.6697C49.8081 37.8901 49.9041 38.2122 49.9769 38.3853L50.1091 38.7002H53.0028C55.3028 38.7002 55.8727 38.6708 55.7815 38.557C55.7183 38.4784 55.6143 38.1821 55.5502 37.8987C55.4863 37.6153 55.381 37.2289 55.3165 37.0399C54.9511 35.9712 54.6142 34.8082 54.6142 34.6159C54.6142 34.4944 54.5664 34.346 54.5079 34.2863C54.4495 34.2264 54.3246 33.8684 54.2303 33.4905C54.136 33.1127 53.9475 32.4429 53.8114 32.0021C53.6752 31.5612 53.4756 30.8657 53.3677 30.4563C53.2598 30.047 53.1113 29.567 53.0378 29.3898C52.9641 29.2125 52.9047 29.0322 52.9055 28.989C52.9064 28.9459 52.8057 28.5757 52.6817 28.1664C52.5576 27.7571 52.2475 26.7266 51.9925 25.8764C51.1931 23.2117 50.8858 22.1927 50.5076 20.953C50.0982 19.6108 49.6488 18.0403 49.4756 17.3464C49.4128 17.0945 49.2915 16.7338 49.2061 16.5449C49.1208 16.356 49.0155 15.9827 48.9721 15.7154C48.9289 15.4481 48.8511 15.2031 48.7993 15.1709C48.7475 15.1387 48.6697 14.8937 48.6264 14.6265C48.5831 14.3591 48.4778 13.9859 48.3925 13.7969C48.3071 13.608 48.1854 13.2474 48.122 12.9955C47.9039 12.1275 47.5538 10.9334 47.3837 10.4765C47.2898 10.2246 47.2108 9.90564 47.2081 9.76767C47.2053 9.6297 47.1605 9.49035 47.1085 9.45818C47.0565 9.42589 46.9494 9.10083 46.8705 8.73582C46.7915 8.37068 46.6853 7.99101 46.6345 7.89185C46.5431 7.71358 45.8635 5.44962 45.752 4.95202C45.6735 4.60177 45.5331 4.62787 45.444 5.00927ZM74.9092 4.81943C73.4531 4.91206 71.6148 5.21135 71.0896 5.44149C70.9015 5.52393 70.5424 5.62812 70.2915 5.67312C70.0407 5.718 69.7841 5.79277 69.7214 5.83937C69.6587 5.88597 69.4022 5.98742 69.1513 6.06482C68.9005 6.14222 68.49 6.29851 68.2392 6.41186C67.9884 6.52533 67.5779 6.70967 67.3271 6.82142C66.5914 7.14934 64.752 8.24474 64.1346 8.72276C63.821 8.96538 63.4463 9.25323 63.3017 9.36223C62.984 9.60199 61.1621 11.423 60.7902 11.8726C59.7859 13.0868 58.3717 15.6259 58.0267 16.8348C57.9464 17.1161 57.846 17.3979 57.8034 17.4609C57.7609 17.5238 57.6597 17.9876 57.5786 18.4913C57.4975 18.9951 57.3745 19.4797 57.3053 19.5681C57.135 19.7857 57.1336 23.492 57.3039 23.712C57.3722 23.8004 57.4923 24.2592 57.5705 24.7315C57.8923 26.673 58.8689 28.7985 60.4052 30.9007C61.052 31.7858 62.9607 33.7768 63.1624 33.7768C63.2268 33.7768 63.2795 33.8183 63.2795 33.8692C63.2795 33.9552 63.5377 34.1524 64.8757 35.089C65.5581 35.5667 66.9614 36.3698 67.2912 36.4713C67.4363 36.5161 67.6064 36.591 67.6691 36.6377C67.7318 36.6845 68.1936 36.8769 68.6953 37.0652C69.1969 37.2537 69.71 37.4498 69.8354 37.501C70.2859 37.6852 71.6769 38.0295 72.5719 38.1783C73.0735 38.2616 73.6892 38.3871 73.9401 38.4572C74.2063 38.5314 75.3739 38.5846 76.7447 38.585C78.6527 38.5855 79.2943 38.5431 80.1652 38.3585C80.7547 38.2335 81.4009 38.1304 81.601 38.1295C81.8011 38.1285 81.9919 38.0835 82.0252 38.0295C82.0584 37.9755 82.4078 37.8664 82.8016 37.787C84.1298 37.5192 87.0357 36.2725 88.3594 35.4024C89.1767 34.8652 90.1406 34.1525 90.6359 33.7195C91.2783 33.1578 92.7038 31.6887 93.0246 31.2578C93.1886 31.0374 93.3743 30.799 93.437 30.728C93.5526 30.597 93.6277 30.4868 94.0905 29.7688C94.3457 29.3727 95.1253 27.8079 95.4631 27.0139C95.7456 26.3492 96.097 24.9793 96.2833 23.8155C96.6637 21.4402 96.4102 18.9837 95.5271 16.4876C95.1345 15.3775 93.9059 13.0527 93.712 13.0527C93.6549 13.0527 93.608 13.0007 93.608 12.9372C93.608 12.8738 93.467 12.627 93.2944 12.3891C92.2766 10.9847 90.3574 9.21487 88.7053 8.1576C88.2977 7.89678 87.9128 7.63996 87.8501 7.58706C87.7333 7.48825 86.4281 6.84741 85.5128 6.43922C84.8311 6.13523 83.3882 5.6445 82.8904 5.54729C82.6709 5.50447 82.44 5.42993 82.3773 5.38173C82.3146 5.33352 81.8015 5.23025 81.2371 5.15239C80.6728 5.07453 80.1597 4.97228 80.097 4.92534C79.9251 4.79653 76.4008 4.72463 74.9092 4.81943ZM151.855 6.95572C151.846 8.1994 151.807 10.737 151.769 12.5947L151.7 15.9724L149.952 16.004C148.991 16.0214 148.222 16.0813 148.242 16.1369C148.263 16.1927 148.818 17.3479 149.476 18.704L150.674 21.1697L151.187 21.2045L151.7 21.2393L151.729 29.9697L151.758 38.7002H154.665H157.572V29.9411V21.182H159.726C161.585 21.182 161.889 21.2069 161.949 21.3632C161.987 21.4628 162.018 25.4044 162.018 30.1222V38.7002H164.869H167.719V21.6973V4.6944H164.869H162.018V10.1809C162.018 13.1985 161.987 15.7489 161.949 15.8485C161.889 16.0048 161.585 16.0296 159.726 16.0296H157.572V10.362V4.6944H154.721H151.871L151.855 6.95572ZM190.979 4.81393C190.257 4.85607 189.283 4.97526 188.812 5.07865C188.342 5.18204 187.795 5.26666 187.596 5.26677C187.398 5.26677 187.218 5.30971 187.197 5.36215C187.176 5.41447 186.851 5.5395 186.475 5.6398C185.285 5.95719 184.905 6.10627 183.168 6.93592C182.06 7.46535 180.256 8.59304 179.479 9.24109C178.986 9.65237 177.231 11.3999 176.77 11.9383C176.145 12.6682 175.523 13.6471 174.899 14.8847C173.102 18.4441 172.77 22.421 173.959 26.1481C174.117 26.6439 174.316 27.1849 174.402 27.3504C174.488 27.5158 174.559 27.7127 174.559 27.7881C174.561 28.049 175.92 30.2909 176.524 31.0288C177.189 31.8408 177.934 32.6741 178.299 33.015C179.318 33.9644 179.61 34.1958 180.774 34.977C181.96 35.7731 183.739 36.7385 184.366 36.9256C184.522 36.9724 184.702 37.0492 184.765 37.0963C184.827 37.1433 185.084 37.244 185.335 37.32C185.586 37.3959 185.868 37.4888 185.962 37.5262C186.336 37.6752 187.766 38.0327 188.394 38.1342C188.76 38.1933 189.392 38.319 189.798 38.4136C190.28 38.5259 191.128 38.5857 192.24 38.5857H193.943V35.9522V33.3188L193.002 33.3179C189.832 33.3147 187.176 32.5356 184.56 30.8414C183.653 30.254 181.528 28.1753 181.222 27.5753C181.115 27.3651 180.991 27.1674 180.946 27.1359C180.799 27.0317 179.945 25.1398 179.861 24.7315C179.816 24.5111 179.728 24.2681 179.667 24.1915C179.445 23.9141 179.304 21.5927 179.436 20.3741C179.505 19.7401 179.609 19.16 179.668 19.0852C179.727 19.0105 179.812 18.7432 179.857 18.4913C179.903 18.2395 180.012 17.9045 180.1 17.7471C180.188 17.5897 180.311 17.3321 180.374 17.1746C180.437 17.0172 180.553 16.7853 180.631 16.6594C180.709 16.5334 180.923 16.1857 181.107 15.8865C181.29 15.5873 181.482 15.3427 181.534 15.3427C181.587 15.3427 181.629 15.2855 181.629 15.2157C181.629 14.8117 183.752 12.8735 185.05 12.0923C185.332 11.9224 185.64 11.7361 185.734 11.6782C185.828 11.6204 186.213 11.4394 186.589 11.2763C186.965 11.1131 187.427 10.9073 187.615 10.8186C187.803 10.7301 188.162 10.6217 188.413 10.5777C188.664 10.5338 189.049 10.4225 189.268 10.3304C189.488 10.2383 190.193 10.1359 190.836 10.1029C191.479 10.0699 192.005 9.99872 192.005 9.94479C192.005 9.89087 192.39 9.84678 192.86 9.84678C193.354 9.84678 193.715 9.8951 193.715 9.96128C193.715 10.0243 193.766 10.0758 193.829 10.0758C193.902 10.0758 193.943 9.1266 193.943 7.45734V4.83889L193.515 4.7679C193.064 4.69302 193.04 4.69348 190.979 4.81393ZM134.426 4.94137C133.23 5.18594 132.784 5.30433 132.502 5.45226C132.337 5.53847 132.141 5.60923 132.065 5.60969C131.938 5.61038 131.24 6.0299 130.925 6.29576C130.849 6.35965 130.756 6.41186 130.719 6.41186C130.473 6.41186 129.496 7.62805 129.113 8.40915L128.668 9.31861L128.611 12.5883L128.554 15.8579L126.017 15.8887C124.503 15.9071 123.48 15.9636 123.48 16.0288C123.48 16.0891 123.656 16.4873 123.871 16.914C124.086 17.3408 124.624 18.4427 125.066 19.3629C125.509 20.283 125.939 21.0926 126.022 21.162C126.105 21.2313 126.709 21.3028 127.364 21.3209L128.554 21.3538L128.51 30.027L128.465 38.7002H131.388H134.311L134.34 30.027L134.369 21.3538L135.937 21.322L137.505 21.2901V29.9951V38.7002H140.414H143.324L143.293 24.1876L143.262 9.67504L142.985 8.98805C142.833 8.61021 142.615 8.16436 142.501 7.99719C142.387 7.83003 142.293 7.65965 142.293 7.61878C142.293 7.40329 140.78 6.15756 140.133 5.84063C139.722 5.63912 139.306 5.43359 139.209 5.3839C139.112 5.33421 138.727 5.23185 138.354 5.15651C137.981 5.08117 137.46 4.97205 137.198 4.91412C136.611 4.78496 135.119 4.79951 134.426 4.94137ZM102.045 21.869V38.7002H104.951H107.856L107.887 35.5801L107.917 32.46L108.428 32.4235C108.709 32.4035 108.991 32.3449 109.055 32.2932C109.119 32.2417 109.454 32.163 109.798 32.1186C110.143 32.0742 110.572 31.9668 110.751 31.8799C110.929 31.793 111.263 31.6889 111.492 31.6487C111.721 31.6085 112.01 31.5122 112.136 31.4348C112.261 31.3574 112.507 31.2586 112.682 31.2155C113.264 31.0713 114.974 30.1758 116.127 29.4105C118.259 27.9958 120.124 25.9291 121.131 23.8659C121.946 22.198 122.254 20.8148 122.251 18.8348C122.248 16.0166 121.62 14.1143 119.891 11.6878C119.717 11.4445 117.774 9.48474 117.381 9.15659C117.192 8.99962 116.782 8.7057 116.468 8.50327C116.155 8.30095 115.847 8.09348 115.784 8.04219C115.722 7.99101 115.503 7.8804 115.3 7.79636C115.096 7.71232 114.929 7.60389 114.929 7.55535C114.929 7.5068 114.788 7.4318 114.616 7.38852C114.443 7.34536 114.225 7.24323 114.131 7.1617C114.037 7.08007 113.755 6.94782 113.504 6.86779C113.253 6.78764 113.022 6.68814 112.991 6.64647C112.902 6.52785 111.134 5.95387 110.858 5.95387C110.721 5.95387 110.583 5.90967 110.55 5.85575C110.516 5.8017 110.167 5.69522 109.773 5.61908C109.38 5.54294 108.852 5.43382 108.601 5.37669C107.65 5.16006 106.023 5.03858 104.069 5.03823L102.045 5.03789V21.869ZM137.117 9.3201L137.505 9.70939V12.8155V15.9216L135.937 15.8897L134.369 15.8579L134.337 12.9955C134.319 11.4211 134.334 10.0121 134.37 9.86442C134.406 9.71672 134.599 9.44627 134.798 9.26331C135.125 8.96378 135.239 8.93081 135.945 8.93081C136.685 8.93081 136.751 8.9529 137.117 9.3201ZM108.829 9.79663C109.08 9.8406 109.337 9.91434 109.399 9.96048C109.462 10.0065 109.661 10.0798 109.842 10.1233C110.214 10.2126 111.805 10.9713 112.442 11.3631C113.562 12.0512 115.316 13.7997 115.668 14.5795C115.73 14.7159 115.848 14.8981 115.93 14.9844C116.013 15.0706 116.11 15.2897 116.146 15.471C116.182 15.6523 116.248 15.8007 116.293 15.8007C116.41 15.8007 116.735 17.0368 116.871 17.9988C116.951 18.5663 116.95 19.0931 116.868 19.6861C116.749 20.5449 116.426 21.7601 116.288 21.869C116.248 21.9005 116.147 22.1195 116.063 22.3556C115.978 22.5918 115.874 22.785 115.831 22.785C115.787 22.785 115.72 22.9138 115.68 23.0712C115.641 23.2287 115.56 23.3575 115.5 23.3575C115.44 23.3575 115.306 23.5219 115.203 23.7229C115.047 24.0265 114.399 24.7136 113.437 25.5961C113.338 25.6874 113.195 25.7619 113.12 25.7619C113.045 25.7619 112.956 25.8345 112.922 25.9231C112.888 26.0119 112.71 26.147 112.527 26.2234C112.343 26.2997 112.193 26.4034 112.193 26.4537C112.193 26.504 112.042 26.5784 111.859 26.6189C111.675 26.6595 111.466 26.7633 111.395 26.8497C111.323 26.936 111.118 27.039 110.939 27.0787C110.759 27.1183 110.551 27.2246 110.476 27.315C110.402 27.4054 110.276 27.4794 110.198 27.4794C110.12 27.4794 109.663 27.6082 109.182 27.7656C108.702 27.9231 108.208 28.0519 108.085 28.0519C107.863 28.0519 107.86 27.9273 107.86 18.8225V9.59294L108.117 9.65477C108.258 9.68878 108.578 9.75267 108.829 9.79663ZM77.7026 9.96128C77.7414 10.0243 78.142 10.077 78.593 10.0785C79.4084 10.0814 80.2317 10.2141 80.6671 10.4131C80.7925 10.4703 81.0747 10.5471 81.2942 10.5833C81.5136 10.6198 81.8402 10.7265 82.0198 10.8206C82.1994 10.9147 82.4009 10.9918 82.4676 10.9918C82.7031 10.9918 84.6674 12.0522 85.3988 12.5742C86.6706 13.482 88.7053 15.6557 88.7053 16.1069C88.7053 16.1904 88.7437 16.2589 88.7908 16.259C88.8774 16.2594 89.2757 17.0111 89.7172 18.0078C89.8504 18.3086 89.9594 18.6976 89.9594 18.8723C89.9594 19.0469 90.012 19.2426 90.0763 19.3071C90.4334 19.6657 90.4652 22.769 90.1218 23.758C90.0344 24.01 89.9621 24.3158 89.9612 24.4377C89.9603 24.5595 89.8535 24.8944 89.724 25.1819C89.1971 26.3516 88.8814 26.9721 88.7403 27.1154C88.6583 27.1987 88.5912 27.3204 88.5912 27.3859C88.5912 27.7843 85.7188 30.6837 85.3227 30.6849C85.2496 30.6851 85.1727 30.7285 85.1517 30.7813C85.0856 30.9483 83.5832 31.8053 82.736 32.1593C81.1073 32.8396 79.6745 33.1555 77.7026 33.2691C74.0483 33.4795 70.3588 32.3778 67.7516 30.2976C66.9911 29.691 65.1037 27.6364 65.1037 27.4153C65.1037 27.366 65.0344 27.2443 64.9497 27.145C64.3054 26.3892 63.5696 24.2927 63.4094 22.7564C63.1479 20.2481 63.6946 18.0656 65.1685 15.7337C65.7545 14.8066 67.4921 13.0871 68.5311 12.4059C69.8089 11.5683 71.6116 10.7149 72.3772 10.5852C72.6097 10.5459 72.974 10.435 73.1869 10.3388C73.4123 10.2369 74.0681 10.1386 74.758 10.1033C75.4094 10.0698 75.9694 9.99849 76.0026 9.94468C76.0872 9.80705 77.6169 9.82205 77.7026 9.96128ZM14.4802 19.3379V28.6L13.9956 28.494C11.772 28.0076 9.40173 26.6914 7.88964 25.1036C7.24385 24.4255 6.61299 23.5667 6.61299 23.3655C6.61299 23.2981 6.5651 23.243 6.50661 23.243C6.44812 23.243 6.36512 23.1271 6.32202 22.9854C6.27903 22.8436 6.14894 22.5152 6.03298 22.2555C5.91703 21.9955 5.78785 21.5576 5.74589 21.2822C5.70405 21.0067 5.62355 20.7222 5.567 20.6499C5.43223 20.4775 5.43097 18.224 5.56563 18.0519C5.62286 17.9787 5.70416 17.6927 5.74612 17.4164C5.78819 17.14 5.94918 16.6361 6.10379 16.2967C6.2584 15.9572 6.38495 15.6337 6.38495 15.5778C6.38495 15.522 6.42441 15.4591 6.47275 15.438C6.52098 15.4171 6.74935 15.1165 6.98012 14.7702C7.70983 13.6751 8.92389 12.5252 10.0881 11.8268C10.7236 11.4454 12.4827 10.632 12.8038 10.571C13.0047 10.5327 13.2716 10.4484 13.397 10.3832C13.5935 10.2814 14.1209 10.125 14.3947 10.0875C14.4416 10.081 14.4802 14.2437 14.4802 19.3379ZM21.4206 10.3773C21.6321 10.4634 21.8852 10.5338 21.9832 10.5338C22.0812 10.5338 22.3699 10.6322 22.6249 10.7525C22.8798 10.8728 23.396 11.1143 23.7718 11.2892C24.1476 11.4641 24.5067 11.6505 24.5699 11.7032C24.633 11.756 24.9412 11.9648 25.2548 12.1671C26.4746 12.9542 27.8596 14.5135 28.5355 15.8608C29.1676 17.1207 29.3319 17.9589 29.2847 19.684C29.2609 20.5541 29.1871 21.3374 29.1209 21.4244C29.0545 21.5116 28.9374 21.8033 28.8607 22.0729C28.591 23.0197 27.6074 24.5077 26.6231 25.4582C25.2202 26.8126 22.2607 28.3447 20.6941 28.5273L20.352 28.5671L20.3226 19.4646C20.3063 14.4582 20.3181 10.2963 20.3486 10.216C20.4092 10.0565 20.7636 10.1099 21.4206 10.3773ZM0 45.6844V46.028H97.036H194V45.3983L97 45.3695L0 45.3409V45.6844ZM14.0241 54.9588V59.7677H14.7652H15.5063V57.4777V55.1878H15.852C16.5685 55.1878 17.3063 55.7361 18.0717 56.8375C18.1971 57.0179 18.5819 57.5321 18.9268 57.98C19.2717 58.428 19.702 59.0135 19.883 59.2811L20.212 59.7677H21.1154C21.8074 59.7677 21.9989 59.7341 21.9338 59.6246C21.8094 59.415 21.3874 58.8037 21.3212 58.7372C21.2898 58.7057 21.0861 58.4223 20.8685 58.1075C20.6509 57.7926 20.4309 57.4835 20.3799 57.4205C20.3288 57.3575 20.1597 57.1274 20.0042 56.9091C19.4954 56.1954 18.4418 55.1787 18.0329 55.0071L17.6325 54.8391L17.8951 54.6414C18.5499 54.1479 19.2689 53.2882 19.2689 52.9985C19.2689 52.9228 19.4596 52.5334 19.6927 52.1332C20.1751 51.3051 20.7244 50.9514 21.5282 50.9514C21.9974 50.9514 22.0053 50.9447 22.0053 50.5506V50.1499H21.1071C20.5869 50.1499 20.047 50.2184 19.8244 50.3127C19.4437 50.4739 18.8007 51.0781 18.6575 51.4094C18.6167 51.5038 18.457 51.7872 18.3026 52.0391C18.1483 52.291 17.9183 52.7054 17.7916 52.96C17.4328 53.6808 16.864 54.1675 16.2446 54.2837C15.9501 54.3389 15.6634 54.3559 15.6077 54.3212C15.5519 54.2866 15.5063 53.334 15.5063 52.2041V50.1499H14.7652H14.0241V54.9588ZM69.3794 52.6195C67.8379 52.987 67.0571 53.4748 66.8109 54.2241C66.7374 54.4477 66.6952 54.646 66.7171 54.6648C66.7391 54.6834 67.0145 54.7318 67.3293 54.7721C67.8949 54.8443 67.9044 54.8403 68.1185 54.4413C68.2376 54.2191 68.5187 53.9227 68.7432 53.7825C69.5808 53.2593 71.8633 53.5339 72.0312 54.178C72.0609 54.2925 72.1307 54.3863 72.1861 54.3863C72.3479 54.3863 72.3019 55.1471 72.1314 55.2892C72.046 55.3605 71.4431 55.4935 70.7917 55.5848C67.6302 56.028 67.2151 56.1721 66.656 57.0206C66.2732 57.6013 66.2714 58.1473 66.6498 58.7958C66.9306 59.2772 67.6533 59.7677 68.0814 59.7677C68.1744 59.7677 68.3066 59.8239 68.3749 59.8925C68.6387 60.1574 70.9973 59.7767 71.4854 59.3904C71.7391 59.1897 72.1537 58.9662 72.2726 58.9662C72.3291 58.9662 72.4091 59.1465 72.4503 59.367L72.5252 59.7677H73.2733C73.9426 59.7677 74.0125 59.7465 73.9355 59.5673C73.6711 58.9506 73.5456 57.8312 73.5434 56.0715C73.5403 53.5824 73.4282 53.2926 72.2986 52.8525C71.8071 52.6611 69.8577 52.5055 69.3794 52.6195ZM89.7751 52.663C89.141 52.8149 88.3354 53.2698 87.8972 53.7233C86.7817 54.8776 86.7061 57.2196 87.7405 58.5814C88.1197 59.0807 88.9719 59.6203 89.5312 59.7151C89.7661 59.755 89.9872 59.8347 90.0226 59.8922C90.1102 60.0344 91.6386 60.0254 91.7267 59.8822C91.7655 59.8192 91.8839 59.7677 91.99 59.7676C92.3448 59.7675 93.5469 59.1129 93.9095 58.7226C94.5457 58.0373 94.7482 57.4483 94.7481 56.2826C94.7481 55.3733 94.7068 55.1575 94.4142 54.5365C94.0099 53.6784 93.3256 53.1226 92.2563 52.7839C91.5221 52.5513 90.4574 52.4994 89.7751 52.663ZM98.7388 52.7117C97.445 53.0694 96.7322 53.6597 96.3451 54.6941C95.484 56.9947 96.353 58.9652 98.5754 59.7519C99.6669 60.1382 100.713 60.037 101.745 59.4452C102.377 59.0825 102.994 58.3194 103.12 57.7467C103.193 57.4101 103.178 57.392 102.763 57.3232C102.036 57.2024 101.956 57.2278 101.826 57.6209C101.631 58.2103 101.113 58.6761 100.404 58.9C99.7929 59.0932 99.7368 59.0932 99.1212 58.8987C98.3399 58.6519 98.0491 58.3938 97.7291 57.6636C97.5419 57.236 97.4862 56.8872 97.4913 56.1751C97.4997 55.0141 97.7751 54.3814 98.492 53.876C98.9337 53.5647 99.0753 53.5276 99.8211 53.5276C100.584 53.5276 100.694 53.5583 101.094 53.8815C101.335 54.0761 101.599 54.3723 101.681 54.5399C101.796 54.7755 101.912 54.844 102.194 54.8427C103.07 54.8389 103.271 54.5919 102.843 54.0428C102.721 53.8854 102.619 53.7051 102.617 53.6421C102.612 53.4584 101.907 53.0265 101.211 52.7811C100.484 52.5246 99.514 52.4973 98.7388 52.7117ZM117.511 52.786C116.394 53.1831 116.007 53.517 115.524 54.5008C115.25 55.0586 115.214 55.2614 115.214 56.2755C115.214 57.2207 115.258 57.5138 115.467 57.955C115.893 58.855 116.531 59.3604 117.767 59.7759C118.383 59.983 119.826 60.0787 119.982 59.9226C120.022 59.8819 120.309 59.7624 120.618 59.6573C121.352 59.4076 122.129 58.8007 122.437 58.2356C122.573 57.9874 122.67 57.7733 122.654 57.7599C122.638 57.7464 122.339 57.7006 121.988 57.658L121.351 57.5804L120.924 58.1042C120.421 58.72 119.878 58.9856 119.091 58.9994C118.041 59.0177 116.872 58.2499 116.701 57.4303C116.667 57.2675 116.613 57.0054 116.58 56.848L116.521 56.5618H119.602H122.682V55.7832C122.682 55.355 122.639 54.9556 122.587 54.8958C122.534 54.8361 122.421 54.6097 122.336 54.3931C122.129 53.867 121.51 53.2982 120.744 52.9297C119.871 52.5095 118.465 52.447 117.511 52.786ZM133.457 52.653C132.551 52.8905 131.787 53.4084 131.114 54.2417C131.051 54.3197 130.913 54.7982 130.806 55.3052C130.626 56.1672 130.626 56.2867 130.803 57.1474C130.953 57.8742 131.079 58.174 131.405 58.5736C131.879 59.1546 132.582 59.6011 133.202 59.7149C133.438 59.7582 133.659 59.8394 133.693 59.8951C133.773 60.0251 135.257 60.0285 135.401 59.899C135.46 59.8454 135.752 59.7359 136.049 59.6558C136.345 59.5757 136.647 59.4393 136.718 59.3526C136.79 59.2661 136.913 59.1952 136.992 59.1952C137.27 59.1952 138.069 58.1529 138.244 57.5613C138.469 56.8006 138.464 55.5899 138.232 54.8702C137.998 54.1417 137.268 53.3658 136.427 52.9528C135.913 52.7005 135.597 52.6324 134.794 52.6016C134.247 52.5806 133.645 52.6037 133.457 52.653ZM151.529 52.7117C150.313 53.0476 149.453 53.7735 149.067 54.7871C148.783 55.534 148.777 57.1428 149.057 57.6495C149.162 57.8384 149.249 58.0445 149.251 58.1075C149.263 58.4938 150.461 59.4516 151.193 59.6612C151.472 59.741 151.748 59.8491 151.808 59.9015C151.949 60.0253 153.389 60.0253 153.53 59.9015C153.589 59.8491 153.864 59.7416 154.141 59.6625C155.066 59.3976 155.904 58.7274 156.27 57.9594C156.53 57.4143 156.615 55.9025 156.434 55.0298C156.316 54.4555 156.209 54.2777 155.647 53.7131C155.122 53.1861 154.849 53.0115 154.229 52.8073C153.369 52.5237 152.34 52.4873 151.529 52.7117ZM23.9419 55.5599C23.9408 57.087 23.8988 58.4019 23.8483 58.4817C23.7396 58.6537 23.1046 58.8517 22.6617 58.8517C22.3709 58.8517 22.3473 58.8862 22.3473 59.3097V59.7677H23.2061C23.6905 59.7677 24.2341 59.6967 24.4528 59.605C25.1354 59.3185 25.1978 59.0459 25.1978 56.3478C25.1978 55.0274 25.2289 53.8656 25.267 53.766C25.3708 53.4941 28.9013 53.4941 29.0051 53.766C29.0432 53.8656 29.0743 55.2567 29.0743 56.8574V59.7677H29.8155H30.5566V56.2755V52.7833H27.2501H23.9436L23.9419 55.5599ZM32.7229 56.2755V59.7677L33.4355 59.7669C34.1321 59.7661 34.1544 59.7566 34.4301 59.3375C34.5851 59.1018 34.9699 58.5646 35.2852 58.1435C35.6005 57.7225 36.1406 56.9796 36.4855 56.4925C36.8304 56.0055 37.2279 55.4846 37.3691 55.3349C37.5102 55.1853 37.6256 55.0217 37.6256 54.9714C37.6256 54.921 37.7282 54.7865 37.8537 54.6726C38.0811 54.4659 38.0817 54.4725 38.0817 57.1165V59.7677H38.7658H39.4499V56.2755V52.7833H38.7114H37.973L37.5427 53.3468C37.3062 53.6567 36.779 54.3648 36.3714 54.9202C35.9638 55.4758 35.5916 55.9822 35.5442 56.0456C35.4969 56.109 35.2316 56.4702 34.9547 56.848C34.2751 57.7751 34.1022 57.9561 33.973 57.8759C33.9079 57.8355 33.8631 56.7834 33.8631 55.2955V52.7833H33.293H32.7229V56.2755ZM41.6875 53.1412C41.6483 53.338 41.6162 54.9095 41.6162 56.6333V59.7677H42.2433H42.8704V58.3021C42.8704 57.3149 42.9151 56.7917 43.0072 56.6992C43.1023 56.6037 43.704 56.5618 44.9797 56.5618C46.2555 56.5618 46.8571 56.6037 46.9522 56.6992C47.0443 56.7917 47.089 57.3149 47.089 58.3021V59.7677H47.6591H48.2292V56.2755V52.7833H47.6591H47.089V54.2146V55.6458H44.9797H42.8704V54.2146V52.7833H42.3146C41.7833 52.7833 41.7556 52.7991 41.6875 53.1412ZM50.5096 56.2755V59.7677H51.242C51.9056 59.7677 51.9975 59.7382 52.2195 59.4528C52.3542 59.2796 53.1919 58.1366 54.0809 56.9127C54.9699 55.6888 55.7615 54.6669 55.8398 54.6419C55.951 54.6063 55.9824 55.1654 55.9824 57.182V59.7677H56.6665H57.3506V58.5267C57.3506 57.844 57.3168 56.2725 57.2756 55.0345L57.2004 52.7833H56.5025C55.9238 52.7833 55.7761 52.8242 55.637 53.023C55.5448 53.1549 55.3923 53.3595 55.2983 53.4778C55.2042 53.5959 54.922 53.9786 54.6712 54.328C54.4203 54.6774 53.9842 55.2653 53.702 55.6346C53.4198 56.0037 53.112 56.4221 53.0179 56.5642C52.9239 56.7064 52.7314 56.9646 52.5904 57.138C52.4493 57.3116 52.3338 57.5087 52.3338 57.5761C52.3338 57.6875 51.9848 57.9357 51.8283 57.9357C51.7928 57.9357 51.7637 56.7764 51.7637 55.3595V52.7833H51.1366H50.5096V56.2755ZM59.4029 56.2755V59.7677H60.087H60.7711V58.1647V56.5618H61.1907C61.544 56.5618 61.6894 56.6471 62.1111 57.1018C62.5681 57.5946 63.7355 59.2409 63.7355 59.3926C63.7355 59.5996 64.2194 59.7608 64.8502 59.764L65.5656 59.7677L64.8797 58.8231C64.5024 58.3035 64.1035 57.7521 63.9932 57.5976C63.5225 56.9388 63.0863 56.5169 62.7144 56.3608L62.3168 56.194L62.7896 55.7768C63.0497 55.5473 63.4213 55.0504 63.6155 54.6726C64.0455 53.8357 64.326 53.5848 64.8314 53.5848C65.197 53.5848 65.2178 53.5633 65.2178 53.1841V52.7833H64.6646C63.5645 52.7833 63.3872 52.9314 62.3834 54.6879C62.0094 55.3422 61.8317 55.5386 61.4887 55.676C60.7943 55.9541 60.7711 55.9081 60.7711 54.2596V52.7833H60.087H59.4029V56.2755ZM80.268 56.2755V59.7677H80.9521H81.6362V58.1647V56.5618H82.0111C82.309 56.5618 82.4927 56.6733 82.9072 57.1056C83.1938 57.4047 83.6239 57.9586 83.8627 58.3365C84.1017 58.7143 84.3527 59.0761 84.4204 59.1406C84.4882 59.2051 84.6003 59.3596 84.6695 59.4841C84.772 59.6682 84.9381 59.7167 85.5601 59.7444C86.3241 59.7785 86.3246 59.7782 86.1858 59.5179C86.1094 59.3745 85.8626 59.0135 85.6373 58.7155C85.4121 58.4175 85.0265 57.8984 84.7805 57.562C84.5344 57.2256 84.1753 56.8347 83.9823 56.6934C83.0926 56.0421 83.1486 56.1126 83.3962 55.9566C83.8029 55.7003 84.1201 55.2977 84.4342 54.6392C84.8174 53.8356 85.1018 53.5907 85.6553 53.5873C86.0675 53.5849 86.0829 53.5704 86.0829 53.1841V52.7833H85.4611C84.3894 52.7833 84.1797 52.9409 83.4035 54.3294C83.1526 54.778 82.8961 55.2265 82.8334 55.3259C82.6979 55.5407 81.8839 55.9004 81.7381 55.81C81.682 55.7753 81.6362 55.08 81.6362 54.2651V52.7833H80.9521H80.268V56.2755ZM104.668 56.2755V59.7677H105.238H105.808V56.9053C105.808 55.0152 105.848 54.0428 105.925 54.0428C105.99 54.0428 106.072 54.133 106.107 54.2432C106.142 54.3533 106.216 54.5466 106.273 54.6726C106.329 54.7985 106.608 55.5198 106.894 56.2755C107.18 57.0312 107.481 57.8041 107.563 57.993C107.646 58.1819 107.829 58.6586 107.971 59.0521L108.23 59.7677H108.893C109.48 59.7677 109.564 59.7386 109.633 59.5101C109.707 59.268 109.882 58.8482 110.363 57.764C110.569 57.3007 110.807 56.754 111.099 56.0751C111.677 54.7291 111.852 54.3863 111.958 54.3863C112.039 54.3863 112.079 55.2655 112.079 57.077V59.7677H112.706H113.333V56.2755V52.7833H112.307C111.455 52.7833 111.281 52.8136 111.281 52.961C111.281 53.0587 111.184 53.3293 111.066 53.5622C110.949 53.795 110.774 54.1659 110.678 54.3863C110.583 54.6067 110.402 55.0189 110.276 55.3023C110.079 55.7454 109.683 56.6747 109.192 57.848C109.058 58.1666 108.772 58.3722 108.772 58.1498C108.772 58.0826 108.698 57.8652 108.606 57.6668C108.515 57.4684 108.357 57.0741 108.255 56.7908C107.8 55.5315 107.727 55.3392 107.57 54.9988C107.479 54.8003 107.404 54.5855 107.404 54.5214C107.404 54.4573 107.331 54.259 107.242 54.0807C107.153 53.9024 106.991 53.5375 106.883 53.27L106.685 52.7833H105.676H104.668V56.2755ZM123.252 53.1841V53.5848H124.551C125.631 53.5848 125.862 53.6154 125.92 53.766C125.958 53.8656 125.989 55.2567 125.989 56.8574V59.7677H126.614H127.239L127.27 56.7049L127.3 53.6421L128.583 53.6097L129.865 53.5773V53.1803V52.7833H126.559H123.252V53.1841ZM140.469 55.6318C140.469 57.8469 140.436 58.508 140.319 58.6052C140.236 58.674 139.877 58.7647 139.521 58.8067L138.873 58.8832V59.3255V59.7677H139.791C140.82 59.7677 141.23 59.615 141.6 59.0934C141.823 58.7786 141.837 58.6083 141.837 56.1692V53.5793L143.747 53.6107L145.657 53.6421L145.687 56.7049L145.718 59.7677H146.4H147.082V56.2755V52.7833H143.775H140.469V55.6318ZM158.37 56.2755V59.7677H159.054H159.738V56.6763V53.5848H161.391H163.044V53.1841V52.7833H160.707H158.37V56.2755ZM164.185 56.2755V59.7677H164.912H165.639L166.131 59.1093C166.73 58.308 167.507 57.2476 168.118 56.396C169.097 55.0326 169.518 54.5132 169.586 54.5819C169.625 54.6213 169.657 55.8041 169.657 57.2106V59.7677H170.341H171.026V56.2755V52.7833H170.231C169.527 52.7833 169.422 52.8121 169.301 53.0386C169.226 53.1791 169.109 53.358 169.041 53.4364C168.972 53.5149 168.828 53.6963 168.721 53.8396C168.613 53.9828 168.33 54.3577 168.091 54.6726C167.853 54.9874 167.569 55.3739 167.461 55.5313C166.31 57.2034 165.729 57.9357 165.554 57.9357C165.48 57.9357 165.439 57.012 165.439 55.3595V52.7833H164.812H164.185V56.2755ZM173.192 56.2755V59.7677H173.916H174.64L175.383 58.7658C175.792 58.2149 176.647 57.0556 177.284 56.1896C177.921 55.3238 178.491 54.6153 178.55 54.6153C178.618 54.6153 178.631 55.5901 178.586 57.1915L178.514 59.7677H179.217H179.919V56.2755V52.7833L179.206 52.7871L178.494 52.7909L177.639 53.9299C176.71 55.1667 176.124 55.9656 175.415 56.9604C174.557 58.1654 174.621 58.2875 174.586 55.3801L174.556 52.7833H173.874H173.192V56.2755ZM91.9504 53.7076C92.2977 53.838 92.5818 53.9972 92.5818 54.0614C92.5818 54.1254 92.678 54.2635 92.7954 54.368C93.6136 55.0963 93.5219 57.5622 92.6488 58.3117C91.8585 58.9901 91.0143 59.1718 90.1097 58.8582C89.3644 58.5998 88.5912 57.8637 88.5912 57.4125C88.5912 57.267 88.5399 57.1159 88.4772 57.077C88.3363 56.9895 88.3248 55.4542 88.4643 55.3676C88.5199 55.3331 88.5975 55.1329 88.6367 54.9228C88.7235 54.4583 89.1595 54.0204 89.8454 53.7086C90.5027 53.4099 91.1572 53.4095 91.9504 53.7076ZM120.126 53.7036C120.646 53.9564 121.123 54.5755 121.252 55.1635L121.332 55.5313H118.971H116.61L116.675 55.1283C116.882 53.844 118.792 53.0554 120.126 53.7036ZM135.946 53.8904C136.386 54.2019 136.673 54.5758 136.943 55.1878C137.143 55.6405 137.016 57.226 136.739 57.7367C136.398 58.3661 135.714 58.845 134.908 59.0195C134.347 59.1406 133.316 58.7853 132.798 58.2924C131.601 57.1544 131.844 54.5608 133.213 53.8495C134.155 53.3605 135.219 53.3764 135.946 53.8904ZM153.933 53.7605C154.509 54.0576 154.786 54.4093 155.052 55.1823C155.34 56.0184 155.341 56.0363 155.099 57.0446C154.883 57.9423 154.46 58.4899 153.755 58.7858C153.014 59.0966 152.637 59.1119 151.923 58.8597C151.06 58.555 150.429 57.8852 150.321 57.1577C150.214 56.4436 150.326 54.808 150.485 54.7548C150.557 54.7305 150.617 54.6506 150.618 54.5772C150.622 54.3049 151.323 53.7869 151.978 53.5721C152.414 53.4289 153.492 53.5327 153.933 53.7605ZM72.214 56.3071C72.2441 56.3559 72.2036 56.7436 72.1241 57.1685C71.9147 58.2874 71.501 58.6684 70.1705 58.9678C69.3493 59.1526 68.689 59.0095 68.2285 58.547C67.287 57.6016 68.0811 56.8003 70.1404 56.6172C70.6564 56.5714 71.2605 56.4665 71.4831 56.3842C71.9646 56.206 72.1404 56.1875 72.214 56.3071Z" fill="url(#paint0_linear_1_64)"/>
<defs>
<linearGradient id="paint0_linear_1_64" x1="97.0361" y1="0" x2="97.0361" y2="60" gradientUnits="userSpaceOnUse">
<stop stop-color="#7EC549"/>
<stop offset="1" stop-color="#4C9724"/>
</linearGradient>
</defs>
</svg>
