<svg width="17" height="20" viewBox="0 0 17 20" fill="none" xmlns="http://www.w3.org/2000/svg">
<path d="M15.3 3H1.7C0.765 3 0 3.73125 0 4.625V14.375C0 15.2688 0.765 16 1.7 16H15.3C16.235 16 17 15.2688 17 14.375V4.625C17 3.73125 16.235 3 15.3 3ZM14.96 6.45312L9.401 9.77625C8.8485 10.1094 8.1515 10.1094 7.599 9.77625L2.04 6.45312C1.95477 6.40739 1.88013 6.3456 1.82061 6.27149C1.76108 6.19739 1.7179 6.11251 1.69369 6.02199C1.66948 5.93147 1.66473 5.8372 1.67973 5.74487C1.69474 5.65255 1.72919 5.5641 1.78099 5.48487C1.83279 5.40564 1.90088 5.33728 1.98112 5.28393C2.06136 5.23058 2.15209 5.19335 2.24782 5.17449C2.34355 5.15563 2.44229 5.15554 2.53806 5.17421C2.63383 5.19288 2.72464 5.22993 2.805 5.28312L8.5 8.6875L14.195 5.28312C14.2754 5.22993 14.3662 5.19288 14.4619 5.17421C14.5577 5.15554 14.6564 5.15563 14.7522 5.17449C14.8479 5.19335 14.9386 5.23058 15.0189 5.28393C15.0991 5.33728 15.1672 5.40564 15.219 5.48487C15.2708 5.5641 15.3053 5.65255 15.3203 5.74487C15.3353 5.8372 15.3305 5.93147 15.3063 6.02199C15.2821 6.11251 15.2389 6.19739 15.1794 6.27149C15.1199 6.3456 15.0452 6.40739 14.96 6.45312Z" fill="#897B75"/>
</svg>
