<svg width="44" height="44" viewBox="0 0 44 44" fill="none" xmlns="http://www.w3.org/2000/svg">
<rect width="44" height="44" rx="22" fill="#F3F2F0" fill-opacity="0.2"/>
<g clip-path="url(#clip0_1_20)">
<path fill-rule="evenodd" clip-rule="evenodd" d="M28.1355 15.1095C28.3568 15.0125 28.5991 14.9791 28.837 15.0127C29.0749 15.0462 29.2999 15.1455 29.4884 15.3002C29.677 15.4549 29.8222 15.6594 29.9091 15.8923C29.9959 16.1252 30.0212 16.3781 29.9822 16.6247L27.951 29.4443C27.754 30.6808 26.45 31.39 25.3601 30.774C24.4484 30.2587 23.0943 29.4648 21.8763 28.6363C21.2673 28.2217 19.4018 26.8938 19.6311 25.9488C19.8281 25.1409 22.9627 22.1049 24.7538 20.2999C25.4568 19.5908 25.1362 19.1817 24.306 19.834C22.2444 21.4536 18.9344 23.9165 17.84 24.6098C16.8745 25.2211 16.3712 25.3254 15.7694 25.2211C14.6714 25.031 13.6531 24.7365 12.822 24.3777C11.699 23.8932 11.7536 22.2866 12.8211 21.8188L28.1355 15.1095Z" fill="#D4CBB7"/>
</g>
<defs>
<clipPath id="clip0_1_20">
<rect width="20" height="20" fill="white" transform="translate(11 12)"/>
</clipPath>
</defs>
</svg>
