<svg width="44" height="44" viewBox="0 0 44 44" fill="none" xmlns="http://www.w3.org/2000/svg">
<rect width="44" height="44" rx="22" fill="#F3F2F0" fill-opacity="0.2"/>
<path fill-rule="evenodd" clip-rule="evenodd" d="M25.8201 13.4895C22.9749 12.8368 20.0243 12.8368 17.1791 13.4895L16.8725 13.5591C16.0722 13.7428 15.3371 14.1505 14.749 14.737C14.1609 15.3235 13.7427 16.0659 13.5409 16.8816C12.8197 19.7982 12.8197 22.8533 13.5409 25.7698C13.7333 26.5478 14.1228 27.2597 14.6697 27.8335C15.2167 28.4072 15.9018 28.8223 16.6555 29.0367L17.076 31.613C17.0894 31.6948 17.124 31.7714 17.176 31.8349C17.2281 31.8984 17.2958 31.9463 17.3721 31.9738C17.4484 32.0013 17.5304 32.0073 17.6097 31.9912C17.689 31.975 17.7627 31.9374 17.823 31.8822L20.2927 29.6149C22.1467 29.731 24.0074 29.5788 25.8201 29.1629L26.1275 29.0933C26.9279 28.9097 27.6629 28.5019 28.2511 27.9154C28.8392 27.3289 29.2574 26.5865 29.4591 25.7708C30.1803 22.8543 30.1803 19.7991 29.4591 16.8826C29.2573 16.0667 28.839 15.3243 28.2507 14.7377C27.6624 14.1512 26.9271 13.7435 26.1266 13.5601L25.8201 13.4895ZM17.9423 16.8065C17.7743 16.7814 17.6029 16.8161 17.4567 16.9048H17.4441C17.1049 17.109 16.7993 17.3661 16.5388 17.6687C16.3218 17.9257 16.2042 18.1856 16.1735 18.4362C16.1554 18.5847 16.168 18.735 16.2105 18.877L16.2268 18.8863C16.471 19.6223 16.7893 20.3304 17.1782 20.9967C17.6796 21.9327 18.2966 22.7983 19.014 23.5722L19.0357 23.6037L19.0701 23.6297L19.0909 23.6548L19.1162 23.677C19.8729 24.4154 20.7183 25.0517 21.6321 25.5703C22.6766 26.1541 23.3105 26.4297 23.6912 26.5448V26.5504C23.8025 26.5856 23.9038 26.6014 24.006 26.6014C24.3302 26.5768 24.6371 26.4415 24.8777 26.2172C25.1717 25.9499 25.4204 25.6353 25.6139 25.2854V25.2789C25.7957 24.9262 25.7342 24.594 25.4719 24.3684C24.9451 23.8961 24.3755 23.4765 23.7708 23.1155C23.3657 22.89 22.9542 23.0264 22.7878 23.2548L22.4324 23.7151C22.2497 23.9434 21.9187 23.9118 21.9187 23.9118L21.9097 23.9174C19.4399 23.2705 18.7807 20.7044 18.7807 20.7044C18.7807 20.7044 18.7499 20.3554 18.9787 20.1772L19.4237 19.8097C19.6371 19.6315 19.7854 19.2102 19.5566 18.7944C19.2072 18.1733 18.7992 17.5889 18.3384 17.0496C18.238 16.9227 18.097 16.8363 17.9405 16.8055L17.9423 16.8065ZM22.115 15.6909C21.9951 15.6909 21.88 15.7398 21.7952 15.8268C21.7104 15.9139 21.6628 16.0319 21.6628 16.155C21.6628 16.278 21.7104 16.3961 21.7952 16.4831C21.88 16.5701 21.9951 16.619 22.115 16.619C23.259 16.619 24.2085 17.0023 24.96 17.7373C25.3462 18.1392 25.6473 18.6153 25.8445 19.1369C26.0425 19.6594 26.133 20.2172 26.1095 20.7759C26.107 20.8368 26.1162 20.8976 26.1366 20.9549C26.157 21.0122 26.1882 21.0648 26.2285 21.1097C26.3097 21.2004 26.4227 21.2542 26.5426 21.2594C26.6626 21.2646 26.7796 21.2206 26.8679 21.1373C26.9563 21.0539 27.0088 20.9379 27.0138 20.8148C27.0419 20.1276 26.9307 19.4418 26.6873 18.8009C26.4429 18.1569 26.0723 17.5713 25.5985 17.0803L25.5895 17.071C24.6571 16.1568 23.4769 15.6909 22.115 15.6909ZM22.0842 17.2167C21.9643 17.2167 21.8493 17.2656 21.7645 17.3526C21.6797 17.4396 21.6321 17.5576 21.6321 17.6807C21.6321 17.8038 21.6797 17.9218 21.7645 18.0088C21.8493 18.0959 21.9643 18.1448 22.0842 18.1448H22.0996C22.9244 18.2051 23.5249 18.4872 23.9454 18.9503C24.3767 19.4274 24.6001 20.0204 24.5829 20.7536C24.5802 20.8767 24.6252 20.9958 24.708 21.0848C24.7909 21.1739 24.9048 21.2255 25.0247 21.2283C25.1446 21.2311 25.2607 21.185 25.3475 21.0999C25.4342 21.0149 25.4845 20.898 25.4873 20.7749C25.509 19.8125 25.2069 18.9819 24.6083 18.3192V18.3174C23.996 17.6436 23.1559 17.2872 22.1448 17.2176L22.1295 17.2158L22.0842 17.2167ZM22.0671 18.7712C22.0065 18.7657 21.9456 18.7728 21.8878 18.7921C21.83 18.8113 21.7766 18.8423 21.7307 18.8832C21.6849 18.9241 21.6475 18.974 21.6209 19.03C21.5943 19.0861 21.5789 19.1471 21.5757 19.2093C21.5726 19.2716 21.5817 19.3338 21.6025 19.3924C21.6233 19.451 21.6554 19.5046 21.6969 19.5502C21.7383 19.5958 21.7883 19.6323 21.8438 19.6576C21.8994 19.6829 21.9593 19.6964 22.02 19.6974C22.398 19.7179 22.6395 19.8348 22.7914 19.9916C22.9443 20.1494 23.0582 20.4028 23.079 20.7991C23.0801 20.8613 23.0935 20.9227 23.1182 20.9796C23.143 21.0365 23.1786 21.0877 23.223 21.1301C23.2675 21.1725 23.3197 21.2054 23.3768 21.2266C23.4338 21.2479 23.4945 21.2571 23.5551 21.2538C23.6157 21.2505 23.675 21.2347 23.7296 21.2074C23.7841 21.18 23.8327 21.1417 23.8725 21.0947C23.9123 21.0477 23.9425 20.9929 23.9612 20.9337C23.9799 20.8744 23.9868 20.8119 23.9815 20.7499C23.9526 20.193 23.7826 19.7011 23.4344 19.3392C23.0844 18.9772 22.6078 18.8009 22.0671 18.7712Z" fill="#D4CBB7"/>
</svg>
