<svg width="44" height="44" viewBox="0 0 44 44" fill="none" xmlns="http://www.w3.org/2000/svg">
<rect width="44" height="44" rx="22" fill="#F3F2F0" fill-opacity="0.2"/>
<path d="M31.5414 16.8126C31.6812 16.3438 31.5414 16 30.8807 16H28.6919C28.135 16 27.8805 16.2974 27.7407 16.6241C27.7407 16.6241 26.6279 19.3655 25.0509 21.143C24.5419 21.6602 24.3093 21.8236 24.0319 21.8236C23.8931 21.8236 23.6915 21.6602 23.6915 21.1914V16.8126C23.6915 16.25 23.5308 16 23.0667 16H19.6273C19.28 16 19.0704 16.2601 19.0704 16.5082C19.0704 17.0405 19.8589 17.1635 19.9397 18.6638V21.9183C19.9397 22.6312 19.813 22.7612 19.5335 22.7612C18.7919 22.7612 16.9874 20.0097 15.9165 16.86C15.7079 16.248 15.4973 16.001 14.9384 16.001H12.7506C12.1248 16.001 12 16.2984 12 16.6251C12 17.2119 12.7416 20.1156 15.4544 23.956C17.2629 26.5784 19.809 28 22.1285 28C23.5189 28 23.6905 27.6844 23.6905 27.14V25.1578C23.6905 24.5266 23.8233 24.3996 24.2634 24.3996C24.5868 24.3996 25.1437 24.5649 26.4422 25.8283C27.9254 27.3265 28.1709 27.999 29.0043 27.999H31.1921C31.8169 27.999 32.1293 27.6834 31.9497 27.0603C31.753 26.4403 31.0444 25.5379 30.1042 24.4702C29.5932 23.8612 28.8296 23.2058 28.5971 22.8782C28.2727 22.4557 28.3665 22.2692 28.5971 21.8941C28.5981 21.8951 31.264 18.1022 31.5414 16.8126Z" fill="#D4CBB7"/>
</svg>
